<?xml version="1.0" encoding="UTF-8"?>
<svg xmlns="http://www.w3.org/2000/svg" width="1024" height="1024" viewBox="0 0 1024 1024" role="img" aria-labelledby="title desc">
  <title id="title">Luma Bar Notch Key app icon</title>
  <desc id="desc">A graphite keycap carrying an original ice-blue notched window symbol.</desc>
  <defs>
    <linearGradient id="shell" x1="250" y1="78" x2="754" y2="934" gradientUnits="userSpaceOnUse">
      <stop stop-color="#626A74"/>
      <stop offset="0.18" stop-color="#3C424A"/>
      <stop offset="0.72" stop-color="#20252B"/>
      <stop offset="1" stop-color="#101318"/>
    </linearGradient>
    <linearGradient id="shell-edge" x1="512" y1="84" x2="512" y2="922" gradientUnits="userSpaceOnUse">
      <stop stop-color="#A4ABB3" stop-opacity="0.78"/>
      <stop offset="0.22" stop-color="#606871" stop-opacity="0.36"/>
      <stop offset="0.78" stop-color="#05070A" stop-opacity="0.58"/>
      <stop offset="1" stop-color="#05070A" stop-opacity="0.9"/>
    </linearGradient>
    <linearGradient id="rim" x1="512" y1="118" x2="512" y2="878" gradientUnits="userSpaceOnUse">
      <stop stop-color="#101318"/>
      <stop offset="0.74" stop-color="#090B0F"/>
      <stop offset="1" stop-color="#020406"/>
    </linearGradient>
    <linearGradient id="face" x1="282" y1="150" x2="718" y2="824" gradientUnits="userSpaceOnUse">
      <stop stop-color="#2B3036"/>
      <stop offset="0.34" stop-color="#1B1F24"/>
      <stop offset="0.78" stop-color="#111419"/>
      <stop offset="1" stop-color="#090B0E"/>
    </linearGradient>
    <linearGradient id="face-edge" x1="512" y1="138" x2="512" y2="826" gradientUnits="userSpaceOnUse">
      <stop stop-color="#B7BEC6" stop-opacity="0.42"/>
      <stop offset="0.18" stop-color="#727981" stop-opacity="0.12"/>
      <stop offset="0.84" stop-color="#020305" stop-opacity="0.62"/>
      <stop offset="1" stop-color="#020305" stop-opacity="0.94"/>
    </linearGradient>
    <linearGradient id="mark" x1="286" y1="350" x2="738" y2="664" gradientUnits="userSpaceOnUse">
      <stop stop-color="#B7F4FF"/>
      <stop offset="0.5" stop-color="#69E4FF"/>
      <stop offset="1" stop-color="#8DBBFF"/>
    </linearGradient>
    <radialGradient id="face-light" cx="0" cy="0" r="1" gradientTransform="translate(346 226) rotate(44) scale(438 326)" gradientUnits="userSpaceOnUse">
      <stop stop-color="white" stop-opacity="0.12"/>
      <stop offset="0.46" stop-color="white" stop-opacity="0.025"/>
      <stop offset="1" stop-color="white" stop-opacity="0"/>
    </radialGradient>
    <filter id="key-shadow" x="26" y="24" width="972" height="982" filterUnits="userSpaceOnUse" color-interpolation-filters="sRGB">
      <feDropShadow dx="0" dy="34" stdDeviation="28" flood-color="#020306" flood-opacity="0.56"/>
    </filter>
    <filter id="underglow" x="116" y="700" width="792" height="230" filterUnits="userSpaceOnUse" color-interpolation-filters="sRGB">
      <feGaussianBlur stdDeviation="30"/>
    </filter>
    <filter id="mark-glow" x="198" y="266" width="628" height="494" filterUnits="userSpaceOnUse" color-interpolation-filters="sRGB">
      <feGaussianBlur stdDeviation="24"/>
    </filter>
  </defs>

  <ellipse cx="512" cy="870" rx="318" ry="58" fill="#44D9FF" fill-opacity="0.18" filter="url(#underglow)"/>

  <g filter="url(#key-shadow)">
    <rect x="92" y="64" width="840" height="872" rx="214" fill="url(#shell)"/>
    <rect x="104" y="76" width="816" height="848" rx="202" fill="none" stroke="url(#shell-edge)" stroke-width="24"/>
    <rect x="126" y="108" width="772" height="770" rx="184" fill="url(#rim)"/>
    <path d="M150 708C150 782.006 209.994 842 284 842H740C814.006 842 874 782.006 874 708V754C874 828.006 814.006 888 740 888H284C209.994 888 150 828.006 150 754V708Z" fill="#020406"/>
    <path d="M180 778H844" stroke="#5BE4FF" stroke-opacity="0.28" stroke-width="22" stroke-linecap="round" filter="url(#underglow)"/>
    <rect x="150" y="126" width="724" height="716" rx="164" fill="url(#face)"/>
    <rect x="158" y="134" width="708" height="700" rx="156" fill="none" stroke="url(#face-edge)" stroke-width="16"/>
    <rect x="166" y="142" width="692" height="684" rx="148" fill="url(#face-light)"/>
  </g>

  <path d="M258 404H400V450L472 522H552L624 450V404H766" fill="none" stroke="#63DFFF" stroke-opacity="0.24" stroke-width="78" stroke-linecap="round" stroke-linejoin="round" filter="url(#mark-glow)"/>
  <path d="M258 404H400V450L472 522H552L624 450V404H766" fill="none" stroke="url(#mark)" stroke-width="52" stroke-linecap="round" stroke-linejoin="round"/>
  <path d="M270 392H390" stroke="white" stroke-opacity="0.42" stroke-width="4" stroke-linecap="round"/>
  <path d="M634 392H754" stroke="white" stroke-opacity="0.24" stroke-width="4" stroke-linecap="round"/>
</svg>
